# xmcd
#
# Track frame offsets:
# 150
# 25040
# 44451
# 73121
# 92382
#
# Disc length: 1689 seconds
#
# Revision: 1
# Processed by: cddbd v1.5.2PL0 Copyright (c) Steve Scherf et al.
# Submitted via: CedeCatalogueitor 2.6.0.6 http://personales.ya.com/cdcatalogueitor
#
DISCID=36069705
DTITLE=Nudozurdo - Ultrapresión
DYEAR=1900
DGENRE=
TTITLE0=Cementerio De Errores
TTITLE1=Contigo Sin Ti
TTITLE2=Chicopromo
TTITLE3=Hasta Que Se Parezca
TTITLE4=Campamento Dorado
EXTD=
EXTT0=
EXTT1=
EXTT2=
EXTT3=
EXTT4=
PLAYORDER=
